<?xml version="1.0" encoding="utf-8" standalone="no"?>
<!DOCTYPE svg PUBLIC "-//W3C//DTD SVG 1.1//EN"
  "http://www.w3.org/Graphics/SVG/1.1/DTD/svg11.dtd">
<svg height="810pt" version="1.1" viewBox="0 0 1440 810" width="1440pt" xmlns="http://www.w3.org/2000/svg" xmlns:xlink="http://www.w3.org/1999/xlink">
 <metadata>
  <rdf:RDF xmlns:cc="http://creativecommons.org/ns#" xmlns:dc="http://purl.org/dc/elements/1.1/" xmlns:rdf="http://www.w3.org/1999/02/22-rdf-syntax-ns#">
   <cc:Work>
    <dc:type rdf:resource="http://purl.org/dc/dcmitype/StillImage"/>
    <dc:date>2021-09-07T11:53:37.209358</dc:date>
    <dc:format>image/svg+xml</dc:format>
    <dc:creator>
     <cc:Agent>
      <dc:title>Matplotlib v3.4.3, https://matplotlib.org/</dc:title>
     </cc:Agent>
    </dc:creator>
   </cc:Work>
  </rdf:RDF>
 </metadata>
 <defs>
  <style type="text/css">*{stroke-linecap:butt;stroke-linejoin:round;}</style>
 </defs>
 <g id="figure_1">
  <g id="patch_1">
   <path d="M 0 810 
L 1440 810 
L 1440 0 
L 0 0 
z
" style="fill:#ffffff;"/>
  </g>
  <g id="axes_1">
   <g id="patch_2">
    <path d="M 419.74 700.622601 
L 1429.2 700.622601 
L 1429.2 263.324136 
L 419.74 263.324136 
z
" style="fill:#ffffff;"/>
   </g>
   <g id="patch_3">
    <path clip-path="url(#pb685217470)" d="M 419.74 374.942276 
L 668.989383 374.942276 
L 668.989383 283.201339 
L 419.74 283.201339 
z
" style="fill:#004da2;"/>
   </g>
   <g id="patch_4">
    <path clip-path="url(#pb685217470)" d="M 842.079232 374.942276 
L 925.162359 374.942276 
L 925.162359 283.201339 
L 842.079232 283.201339 
z
" style="fill:#004da2;"/>
   </g>
   <g id="patch_5">
    <path clip-path="url(#pb685217470)" d="M 671.75882 476.87665 
L 797.76823 476.87665 
L 797.76823 385.135713 
L 671.75882 385.135713 
z
" style="fill:#ff7f0e;"/>
   </g>
   <g id="patch_6">
    <path clip-path="url(#pb685217470)" d="M 419.74 578.811024 
L 1387.658436 578.811024 
L 1387.658436 487.070087 
L 419.74 487.070087 
z
" style="fill:#2ca02c;"/>
   </g>
   <g id="patch_7">
    <path clip-path="url(#pb685217470)" d="M 630.217257 680.745398 
L 1429.2 680.745398 
L 1429.2 589.004461 
L 630.217257 589.004461 
z
" style="fill:#1f77b4;"/>
   </g>
   <g id="matplotlib.axis_1">
    <g id="xtick_1">
     <g id="line2d_1">
      <path clip-path="url(#pb685217470)" d="M 419.74 700.622601 
L 419.74 263.324136 
" style="fill:none;stroke:#808080;stroke-linecap:square;stroke-width:0.8;"/>
     </g>
     <g id="line2d_2">
      <defs>
       <path d="M 0 0 
L 0 3.5 
" id="m0acddb64a4" style="stroke:#000000;stroke-width:0.8;"/>
      </defs>
      <g>
       <use style="stroke:#000000;stroke-width:0.8;" x="419.74" xlink:href="#m0acddb64a4" y="700.622601"/>
      </g>
     </g>
     <g id="text_1">
      <!-- Jan 2020 -->
      <g transform="translate(341.465931 795.262299)rotate(-45)scale(0.24 -0.24)">
       <defs>
        <path d="M 628 4666 
L 1259 4666 
L 1259 325 
Q 1259 -519 939 -900 
Q 619 -1281 -91 -1281 
L -331 -1281 
L -331 -750 
L -134 -750 
Q 284 -750 456 -515 
Q 628 -281 628 325 
L 628 4666 
z
" id="DejaVuSans-4a" transform="scale(0.015625)"/>
        <path d="M 2194 1759 
Q 1497 1759 1228 1600 
Q 959 1441 959 1056 
Q 959 750 1161 570 
Q 1363 391 1709 391 
Q 2188 391 2477 730 
Q 2766 1069 2766 1631 
L 2766 1759 
L 2194 1759 
z
M 3341 1997 
L 3341 0 
L 2766 0 
L 2766 531 
Q 2569 213 2275 61 
Q 1981 -91 1556 -91 
Q 1019 -91 701 211 
Q 384 513 384 1019 
Q 384 1609 779 1909 
Q 1175 2209 1959 2209 
L 2766 2209 
L 2766 2266 
Q 2766 2663 2505 2880 
Q 2244 3097 1772 3097 
Q 1472 3097 1187 3025 
Q 903 2953 641 2809 
L 641 3341 
Q 956 3463 1253 3523 
Q 1550 3584 1831 3584 
Q 2591 3584 2966 3190 
Q 3341 2797 3341 1997 
z
" id="DejaVuSans-61" transform="scale(0.015625)"/>
        <path d="M 3513 2113 
L 3513 0 
L 2938 0 
L 2938 2094 
Q 2938 2591 2744 2837 
Q 2550 3084 2163 3084 
Q 1697 3084 1428 2787 
Q 1159 2491 1159 1978 
L 1159 0 
L 581 0 
L 581 3500 
L 1159 3500 
L 1159 2956 
Q 1366 3272 1645 3428 
Q 1925 3584 2291 3584 
Q 2894 3584 3203 3211 
Q 3513 2838 3513 2113 
z
" id="DejaVuSans-6e" transform="scale(0.015625)"/>
        <path id="DejaVuSans-20" transform="scale(0.015625)"/>
        <path d="M 1228 531 
L 3431 531 
L 3431 0 
L 469 0 
L 469 531 
Q 828 903 1448 1529 
Q 2069 2156 2228 2338 
Q 2531 2678 2651 2914 
Q 2772 3150 2772 3378 
Q 2772 3750 2511 3984 
Q 2250 4219 1831 4219 
Q 1534 4219 1204 4116 
Q 875 4013 500 3803 
L 500 4441 
Q 881 4594 1212 4672 
Q 1544 4750 1819 4750 
Q 2544 4750 2975 4387 
Q 3406 4025 3406 3419 
Q 3406 3131 3298 2873 
Q 3191 2616 2906 2266 
Q 2828 2175 2409 1742 
Q 1991 1309 1228 531 
z
" id="DejaVuSans-32" transform="scale(0.015625)"/>
        <path d="M 2034 4250 
Q 1547 4250 1301 3770 
Q 1056 3291 1056 2328 
Q 1056 1369 1301 889 
Q 1547 409 2034 409 
Q 2525 409 2770 889 
Q 3016 1369 3016 2328 
Q 3016 3291 2770 3770 
Q 2525 4250 2034 4250 
z
M 2034 4750 
Q 2819 4750 3233 4129 
Q 3647 3509 3647 2328 
Q 3647 1150 3233 529 
Q 2819 -91 2034 -91 
Q 1250 -91 836 529 
Q 422 1150 422 2328 
Q 422 3509 836 4129 
Q 1250 4750 2034 4750 
z
" id="DejaVuSans-30" transform="scale(0.015625)"/>
       </defs>
       <use xlink:href="#DejaVuSans-4a"/>
       <use x="29.492188" xlink:href="#DejaVuSans-61"/>
       <use x="90.771484" xlink:href="#DejaVuSans-6e"/>
       <use x="154.150391" xlink:href="#DejaVuSans-20"/>
       <use x="185.9375" xlink:href="#DejaVuSans-32"/>
       <use x="249.560547" xlink:href="#DejaVuSans-30"/>
       <use x="313.183594" xlink:href="#DejaVuSans-32"/>
       <use x="376.806641" xlink:href="#DejaVuSans-30"/>
      </g>
     </g>
    </g>
    <g id="xtick_2">
     <g id="line2d_3">
      <path clip-path="url(#pb685217470)" d="M 671.75882 700.622601 
L 671.75882 263.324136 
" style="fill:none;stroke:#808080;stroke-linecap:square;stroke-width:0.8;"/>
     </g>
     <g id="line2d_4">
      <g>
       <use style="stroke:#000000;stroke-width:0.8;" x="671.75882" xlink:href="#m0acddb64a4" y="700.622601"/>
      </g>
     </g>
     <g id="text_2">
      <!-- Jul 2020 -->
      <g transform="translate(599.16989 789.577161)rotate(-45)scale(0.24 -0.24)">
       <defs>
        <path d="M 544 1381 
L 544 3500 
L 1119 3500 
L 1119 1403 
Q 1119 906 1312 657 
Q 1506 409 1894 409 
Q 2359 409 2629 706 
Q 2900 1003 2900 1516 
L 2900 3500 
L 3475 3500 
L 3475 0 
L 2900 0 
L 2900 538 
Q 2691 219 2414 64 
Q 2138 -91 1772 -91 
Q 1169 -91 856 284 
Q 544 659 544 1381 
z
M 1991 3584 
L 1991 3584 
z
" id="DejaVuSans-75" transform="scale(0.015625)"/>
        <path d="M 603 4863 
L 1178 4863 
L 1178 0 
L 603 0 
L 603 4863 
z
" id="DejaVuSans-6c" transform="scale(0.015625)"/>
       </defs>
       <use xlink:href="#DejaVuSans-4a"/>
       <use x="29.492188" xlink:href="#DejaVuSans-75"/>
       <use x="92.871094" xlink:href="#DejaVuSans-6c"/>
       <use x="120.654297" xlink:href="#DejaVuSans-20"/>
       <use x="152.441406" xlink:href="#DejaVuSans-32"/>
       <use x="216.064453" xlink:href="#DejaVuSans-30"/>
       <use x="279.6875" xlink:href="#DejaVuSans-32"/>
       <use x="343.310547" xlink:href="#DejaVuSans-30"/>
      </g>
     </g>
    </g>
    <g id="xtick_3">
     <g id="line2d_5">
      <path clip-path="url(#pb685217470)" d="M 926.547078 700.622601 
L 926.547078 263.324136 
" style="fill:none;stroke:#808080;stroke-linecap:square;stroke-width:0.8;"/>
     </g>
     <g id="line2d_6">
      <g>
       <use style="stroke:#000000;stroke-width:0.8;" x="926.547078" xlink:href="#m0acddb64a4" y="700.622601"/>
      </g>
     </g>
     <g id="text_3">
      <!-- Jan 2021 -->
      <g transform="translate(848.273009 795.262299)rotate(-45)scale(0.24 -0.24)">
       <defs>
        <path d="M 794 531 
L 1825 531 
L 1825 4091 
L 703 3866 
L 703 4441 
L 1819 4666 
L 2450 4666 
L 2450 531 
L 3481 531 
L 3481 0 
L 794 0 
L 794 531 
z
" id="DejaVuSans-31" transform="scale(0.015625)"/>
       </defs>
       <use xlink:href="#DejaVuSans-4a"/>
       <use x="29.492188" xlink:href="#DejaVuSans-61"/>
       <use x="90.771484" xlink:href="#DejaVuSans-6e"/>
       <use x="154.150391" xlink:href="#DejaVuSans-20"/>
       <use x="185.9375" xlink:href="#DejaVuSans-32"/>
       <use x="249.560547" xlink:href="#DejaVuSans-30"/>
       <use x="313.183594" xlink:href="#DejaVuSans-32"/>
       <use x="376.806641" xlink:href="#DejaVuSans-31"/>
      </g>
     </g>
    </g>
    <g id="xtick_4">
     <g id="line2d_7">
      <path clip-path="url(#pb685217470)" d="M 1177.18118 700.622601 
L 1177.18118 263.324136 
" style="fill:none;stroke:#808080;stroke-linecap:square;stroke-width:0.8;"/>
     </g>
     <g id="line2d_8">
      <g>
       <use style="stroke:#000000;stroke-width:0.8;" x="1177.18118" xlink:href="#m0acddb64a4" y="700.622601"/>
      </g>
     </g>
     <g id="text_4">
      <!-- Jul 2021 -->
      <g transform="translate(1104.592249 789.577161)rotate(-45)scale(0.24 -0.24)">
       <use xlink:href="#DejaVuSans-4a"/>
       <use x="29.492188" xlink:href="#DejaVuSans-75"/>
       <use x="92.871094" xlink:href="#DejaVuSans-6c"/>
       <use x="120.654297" xlink:href="#DejaVuSans-20"/>
       <use x="152.441406" xlink:href="#DejaVuSans-32"/>
       <use x="216.064453" xlink:href="#DejaVuSans-30"/>
       <use x="279.6875" xlink:href="#DejaVuSans-32"/>
       <use x="343.310547" xlink:href="#DejaVuSans-31"/>
      </g>
     </g>
    </g>
    <g id="xtick_5">
     <g id="line2d_9">
      <path clip-path="url(#pb685217470)" d="M 545.74941 700.622601 
L 545.74941 263.324136 
" style="fill:none;stroke:#808080;stroke-dasharray:0.8,1.32;stroke-dashoffset:0;stroke-width:0.8;"/>
     </g>
     <g id="line2d_10">
      <defs>
       <path d="M 0 0 
L 0 2 
" id="ma6bdf6e5aa" style="stroke:#000000;stroke-width:0.6;"/>
      </defs>
      <g>
       <use style="stroke:#000000;stroke-width:0.6;" x="545.74941" xlink:href="#ma6bdf6e5aa" y="700.622601"/>
      </g>
     </g>
    </g>
    <g id="xtick_6">
     <g id="line2d_11">
      <path clip-path="url(#pb685217470)" d="M 799.152949 700.622601 
L 799.152949 263.324136 
" style="fill:none;stroke:#808080;stroke-dasharray:0.8,1.32;stroke-dashoffset:0;stroke-width:0.8;"/>
     </g>
     <g id="line2d_12">
      <g>
       <use style="stroke:#000000;stroke-width:0.6;" x="799.152949" xlink:href="#ma6bdf6e5aa" y="700.622601"/>
      </g>
     </g>
    </g>
    <g id="xtick_7">
     <g id="line2d_13">
      <path clip-path="url(#pb685217470)" d="M 1051.17177 700.622601 
L 1051.17177 263.324136 
" style="fill:none;stroke:#808080;stroke-dasharray:0.8,1.32;stroke-dashoffset:0;stroke-width:0.8;"/>
     </g>
     <g id="line2d_14">
      <g>
       <use style="stroke:#000000;stroke-width:0.6;" x="1051.17177" xlink:href="#ma6bdf6e5aa" y="700.622601"/>
      </g>
     </g>
    </g>
    <g id="xtick_8">
     <g id="line2d_15">
      <path clip-path="url(#pb685217470)" d="M 1304.575309 700.622601 
L 1304.575309 263.324136 
" style="fill:none;stroke:#808080;stroke-dasharray:0.8,1.32;stroke-dashoffset:0;stroke-width:0.8;"/>
     </g>
     <g id="line2d_16">
      <g>
       <use style="stroke:#000000;stroke-width:0.6;" x="1304.575309" xlink:href="#ma6bdf6e5aa" y="700.622601"/>
      </g>
     </g>
    </g>
   </g>
   <g id="matplotlib.axis_2">
    <g id="ytick_1">
     <g id="line2d_17">
      <path clip-path="url(#pb685217470)" d="M 419.74 329.071808 
L 1429.2 329.071808 
" style="fill:none;stroke:#808080;stroke-linecap:square;stroke-width:0.8;"/>
     </g>
     <g id="line2d_18">
      <defs>
       <path d="M 0 0 
L -3.5 0 
" id="m36d0c3cd42" style="stroke:#000000;stroke-width:0.8;"/>
      </defs>
      <g>
       <use style="stroke:#000000;stroke-width:0.8;" x="419.74" xlink:href="#m36d0c3cd42" y="329.071808"/>
      </g>
     </g>
     <g id="text_5">
      <!-- First task -->
      <g transform="translate(304.0875 338.189933)scale(0.24 -0.24)">
       <defs>
        <path d="M 628 4666 
L 3309 4666 
L 3309 4134 
L 1259 4134 
L 1259 2759 
L 3109 2759 
L 3109 2228 
L 1259 2228 
L 1259 0 
L 628 0 
L 628 4666 
z
" id="DejaVuSans-46" transform="scale(0.015625)"/>
        <path d="M 603 3500 
L 1178 3500 
L 1178 0 
L 603 0 
L 603 3500 
z
M 603 4863 
L 1178 4863 
L 1178 4134 
L 603 4134 
L 603 4863 
z
" id="DejaVuSans-69" transform="scale(0.015625)"/>
        <path d="M 2631 2963 
Q 2534 3019 2420 3045 
Q 2306 3072 2169 3072 
Q 1681 3072 1420 2755 
Q 1159 2438 1159 1844 
L 1159 0 
L 581 0 
L 581 3500 
L 1159 3500 
L 1159 2956 
Q 1341 3275 1631 3429 
Q 1922 3584 2338 3584 
Q 2397 3584 2469 3576 
Q 2541 3569 2628 3553 
L 2631 2963 
z
" id="DejaVuSans-72" transform="scale(0.015625)"/>
        <path d="M 2834 3397 
L 2834 2853 
Q 2591 2978 2328 3040 
Q 2066 3103 1784 3103 
Q 1356 3103 1142 2972 
Q 928 2841 928 2578 
Q 928 2378 1081 2264 
Q 1234 2150 1697 2047 
L 1894 2003 
Q 2506 1872 2764 1633 
Q 3022 1394 3022 966 
Q 3022 478 2636 193 
Q 2250 -91 1575 -91 
Q 1294 -91 989 -36 
Q 684 19 347 128 
L 347 722 
Q 666 556 975 473 
Q 1284 391 1588 391 
Q 1994 391 2212 530 
Q 2431 669 2431 922 
Q 2431 1156 2273 1281 
Q 2116 1406 1581 1522 
L 1381 1569 
Q 847 1681 609 1914 
Q 372 2147 372 2553 
Q 372 3047 722 3315 
Q 1072 3584 1716 3584 
Q 2034 3584 2315 3537 
Q 2597 3491 2834 3397 
z
" id="DejaVuSans-73" transform="scale(0.015625)"/>
        <path d="M 1172 4494 
L 1172 3500 
L 2356 3500 
L 2356 3053 
L 1172 3053 
L 1172 1153 
Q 1172 725 1289 603 
Q 1406 481 1766 481 
L 2356 481 
L 2356 0 
L 1766 0 
Q 1100 0 847 248 
Q 594 497 594 1153 
L 594 3053 
L 172 3053 
L 172 3500 
L 594 3500 
L 594 4494 
L 1172 4494 
z
" id="DejaVuSans-74" transform="scale(0.015625)"/>
        <path d="M 581 4863 
L 1159 4863 
L 1159 1991 
L 2875 3500 
L 3609 3500 
L 1753 1863 
L 3688 0 
L 2938 0 
L 1159 1709 
L 1159 0 
L 581 0 
L 581 4863 
z
" id="DejaVuSans-6b" transform="scale(0.015625)"/>
       </defs>
       <use xlink:href="#DejaVuSans-46"/>
       <use x="50.269531" xlink:href="#DejaVuSans-69"/>
       <use x="78.052734" xlink:href="#DejaVuSans-72"/>
       <use x="119.166016" xlink:href="#DejaVuSans-73"/>
       <use x="171.265625" xlink:href="#DejaVuSans-74"/>
       <use x="210.474609" xlink:href="#DejaVuSans-20"/>
       <use x="242.261719" xlink:href="#DejaVuSans-74"/>
       <use x="281.470703" xlink:href="#DejaVuSans-61"/>
       <use x="342.75" xlink:href="#DejaVuSans-73"/>
       <use x="394.849609" xlink:href="#DejaVuSans-6b"/>
      </g>
     </g>
    </g>
    <g id="ytick_2">
     <g id="line2d_19">
      <path clip-path="url(#pb685217470)" d="M 419.74 431.006182 
L 1429.2 431.006182 
" style="fill:none;stroke:#808080;stroke-linecap:square;stroke-width:0.8;"/>
     </g>
     <g id="line2d_20">
      <g>
       <use style="stroke:#000000;stroke-width:0.8;" x="419.74" xlink:href="#m36d0c3cd42" y="431.006182"/>
      </g>
     </g>
     <g id="text_6">
      <!-- An optional longer name possibly -->
      <g transform="translate(11.1375 428.510557)scale(0.24 -0.24)">
       <defs>
        <path d="M 2188 4044 
L 1331 1722 
L 3047 1722 
L 2188 4044 
z
M 1831 4666 
L 2547 4666 
L 4325 0 
L 3669 0 
L 3244 1197 
L 1141 1197 
L 716 0 
L 50 0 
L 1831 4666 
z
" id="DejaVuSans-41" transform="scale(0.015625)"/>
        <path d="M 1959 3097 
Q 1497 3097 1228 2736 
Q 959 2375 959 1747 
Q 959 1119 1226 758 
Q 1494 397 1959 397 
Q 2419 397 2687 759 
Q 2956 1122 2956 1747 
Q 2956 2369 2687 2733 
Q 2419 3097 1959 3097 
z
M 1959 3584 
Q 2709 3584 3137 3096 
Q 3566 2609 3566 1747 
Q 3566 888 3137 398 
Q 2709 -91 1959 -91 
Q 1206 -91 779 398 
Q 353 888 353 1747 
Q 353 2609 779 3096 
Q 1206 3584 1959 3584 
z
" id="DejaVuSans-6f" transform="scale(0.015625)"/>
        <path d="M 1159 525 
L 1159 -1331 
L 581 -1331 
L 581 3500 
L 1159 3500 
L 1159 2969 
Q 1341 3281 1617 3432 
Q 1894 3584 2278 3584 
Q 2916 3584 3314 3078 
Q 3713 2572 3713 1747 
Q 3713 922 3314 415 
Q 2916 -91 2278 -91 
Q 1894 -91 1617 61 
Q 1341 213 1159 525 
z
M 3116 1747 
Q 3116 2381 2855 2742 
Q 2594 3103 2138 3103 
Q 1681 3103 1420 2742 
Q 1159 2381 1159 1747 
Q 1159 1113 1420 752 
Q 1681 391 2138 391 
Q 2594 391 2855 752 
Q 3116 1113 3116 1747 
z
" id="DejaVuSans-70" transform="scale(0.015625)"/>
        <path d="M 2906 1791 
Q 2906 2416 2648 2759 
Q 2391 3103 1925 3103 
Q 1463 3103 1205 2759 
Q 947 2416 947 1791 
Q 947 1169 1205 825 
Q 1463 481 1925 481 
Q 2391 481 2648 825 
Q 2906 1169 2906 1791 
z
M 3481 434 
Q 3481 -459 3084 -895 
Q 2688 -1331 1869 -1331 
Q 1566 -1331 1297 -1286 
Q 1028 -1241 775 -1147 
L 775 -588 
Q 1028 -725 1275 -790 
Q 1522 -856 1778 -856 
Q 2344 -856 2625 -561 
Q 2906 -266 2906 331 
L 2906 616 
Q 2728 306 2450 153 
Q 2172 0 1784 0 
Q 1141 0 747 490 
Q 353 981 353 1791 
Q 353 2603 747 3093 
Q 1141 3584 1784 3584 
Q 2172 3584 2450 3431 
Q 2728 3278 2906 2969 
L 2906 3500 
L 3481 3500 
L 3481 434 
z
" id="DejaVuSans-67" transform="scale(0.015625)"/>
        <path d="M 3597 1894 
L 3597 1613 
L 953 1613 
Q 991 1019 1311 708 
Q 1631 397 2203 397 
Q 2534 397 2845 478 
Q 3156 559 3463 722 
L 3463 178 
Q 3153 47 2828 -22 
Q 2503 -91 2169 -91 
Q 1331 -91 842 396 
Q 353 884 353 1716 
Q 353 2575 817 3079 
Q 1281 3584 2069 3584 
Q 2775 3584 3186 3129 
Q 3597 2675 3597 1894 
z
M 3022 2063 
Q 3016 2534 2758 2815 
Q 2500 3097 2075 3097 
Q 1594 3097 1305 2825 
Q 1016 2553 972 2059 
L 3022 2063 
z
" id="DejaVuSans-65" transform="scale(0.015625)"/>
        <path d="M 3328 2828 
Q 3544 3216 3844 3400 
Q 4144 3584 4550 3584 
Q 5097 3584 5394 3201 
Q 5691 2819 5691 2113 
L 5691 0 
L 5113 0 
L 5113 2094 
Q 5113 2597 4934 2840 
Q 4756 3084 4391 3084 
Q 3944 3084 3684 2787 
Q 3425 2491 3425 1978 
L 3425 0 
L 2847 0 
L 2847 2094 
Q 2847 2600 2669 2842 
Q 2491 3084 2119 3084 
Q 1678 3084 1418 2786 
Q 1159 2488 1159 1978 
L 1159 0 
L 581 0 
L 581 3500 
L 1159 3500 
L 1159 2956 
Q 1356 3278 1631 3431 
Q 1906 3584 2284 3584 
Q 2666 3584 2933 3390 
Q 3200 3197 3328 2828 
z
" id="DejaVuSans-6d" transform="scale(0.015625)"/>
        <path d="M 3116 1747 
Q 3116 2381 2855 2742 
Q 2594 3103 2138 3103 
Q 1681 3103 1420 2742 
Q 1159 2381 1159 1747 
Q 1159 1113 1420 752 
Q 1681 391 2138 391 
Q 2594 391 2855 752 
Q 3116 1113 3116 1747 
z
M 1159 2969 
Q 1341 3281 1617 3432 
Q 1894 3584 2278 3584 
Q 2916 3584 3314 3078 
Q 3713 2572 3713 1747 
Q 3713 922 3314 415 
Q 2916 -91 2278 -91 
Q 1894 -91 1617 61 
Q 1341 213 1159 525 
L 1159 0 
L 581 0 
L 581 4863 
L 1159 4863 
L 1159 2969 
z
" id="DejaVuSans-62" transform="scale(0.015625)"/>
        <path d="M 2059 -325 
Q 1816 -950 1584 -1140 
Q 1353 -1331 966 -1331 
L 506 -1331 
L 506 -850 
L 844 -850 
Q 1081 -850 1212 -737 
Q 1344 -625 1503 -206 
L 1606 56 
L 191 3500 
L 800 3500 
L 1894 763 
L 2988 3500 
L 3597 3500 
L 2059 -325 
z
" id="DejaVuSans-79" transform="scale(0.015625)"/>
       </defs>
       <use xlink:href="#DejaVuSans-41"/>
       <use x="68.408203" xlink:href="#DejaVuSans-6e"/>
       <use x="131.787109" xlink:href="#DejaVuSans-20"/>
       <use x="163.574219" xlink:href="#DejaVuSans-6f"/>
       <use x="224.755859" xlink:href="#DejaVuSans-70"/>
       <use x="288.232422" xlink:href="#DejaVuSans-74"/>
       <use x="327.441406" xlink:href="#DejaVuSans-69"/>
       <use x="355.224609" xlink:href="#DejaVuSans-6f"/>
       <use x="416.40625" xlink:href="#DejaVuSans-6e"/>
       <use x="479.785156" xlink:href="#DejaVuSans-61"/>
       <use x="541.064453" xlink:href="#DejaVuSans-6c"/>
       <use x="568.847656" xlink:href="#DejaVuSans-20"/>
       <use x="600.634766" xlink:href="#DejaVuSans-6c"/>
       <use x="628.417969" xlink:href="#DejaVuSans-6f"/>
       <use x="689.599609" xlink:href="#DejaVuSans-6e"/>
       <use x="752.978516" xlink:href="#DejaVuSans-67"/>
       <use x="816.455078" xlink:href="#DejaVuSans-65"/>
       <use x="877.978516" xlink:href="#DejaVuSans-72"/>
       <use x="919.091797" xlink:href="#DejaVuSans-20"/>
       <use x="950.878906" xlink:href="#DejaVuSans-6e"/>
       <use x="1014.257812" xlink:href="#DejaVuSans-61"/>
       <use x="1075.537109" xlink:href="#DejaVuSans-6d"/>
       <use x="1172.949219" xlink:href="#DejaVuSans-65"/>
       <use x="1234.472656" xlink:href="#DejaVuSans-20"/>
       <use x="1266.259766" xlink:href="#DejaVuSans-70"/>
       <use x="1329.736328" xlink:href="#DejaVuSans-6f"/>
       <use x="1390.917969" xlink:href="#DejaVuSans-73"/>
       <use x="1443.017578" xlink:href="#DejaVuSans-73"/>
       <use x="1495.117188" xlink:href="#DejaVuSans-69"/>
       <use x="1522.900391" xlink:href="#DejaVuSans-62"/>
       <use x="1586.376953" xlink:href="#DejaVuSans-6c"/>
       <use x="1614.160156" xlink:href="#DejaVuSans-79"/>
      </g>
      <!--  with a line break -->
      <g transform="translate(205.36125 455.385307)scale(0.24 -0.24)">
       <defs>
        <path d="M 269 3500 
L 844 3500 
L 1563 769 
L 2278 3500 
L 2956 3500 
L 3675 769 
L 4391 3500 
L 4966 3500 
L 4050 0 
L 3372 0 
L 2619 2869 
L 1863 0 
L 1184 0 
L 269 3500 
z
" id="DejaVuSans-77" transform="scale(0.015625)"/>
        <path d="M 3513 2113 
L 3513 0 
L 2938 0 
L 2938 2094 
Q 2938 2591 2744 2837 
Q 2550 3084 2163 3084 
Q 1697 3084 1428 2787 
Q 1159 2491 1159 1978 
L 1159 0 
L 581 0 
L 581 4863 
L 1159 4863 
L 1159 2956 
Q 1366 3272 1645 3428 
Q 1925 3584 2291 3584 
Q 2894 3584 3203 3211 
Q 3513 2838 3513 2113 
z
" id="DejaVuSans-68" transform="scale(0.015625)"/>
       </defs>
       <use xlink:href="#DejaVuSans-20"/>
       <use x="31.787109" xlink:href="#DejaVuSans-77"/>
       <use x="113.574219" xlink:href="#DejaVuSans-69"/>
       <use x="141.357422" xlink:href="#DejaVuSans-74"/>
       <use x="180.566406" xlink:href="#DejaVuSans-68"/>
       <use x="243.945312" xlink:href="#DejaVuSans-20"/>
       <use x="275.732422" xlink:href="#DejaVuSans-61"/>
       <use x="337.011719" xlink:href="#DejaVuSans-20"/>
       <use x="368.798828" xlink:href="#DejaVuSans-6c"/>
       <use x="396.582031" xlink:href="#DejaVuSans-69"/>
       <use x="424.365234" xlink:href="#DejaVuSans-6e"/>
       <use x="487.744141" xlink:href="#DejaVuSans-65"/>
       <use x="549.267578" xlink:href="#DejaVuSans-20"/>
       <use x="581.054688" xlink:href="#DejaVuSans-62"/>
       <use x="644.53125" xlink:href="#DejaVuSans-72"/>
       <use x="683.394531" xlink:href="#DejaVuSans-65"/>
       <use x="744.917969" xlink:href="#DejaVuSans-61"/>
       <use x="806.197266" xlink:href="#DejaVuSans-6b"/>
      </g>
     </g>
    </g>
    <g id="ytick_3">
     <g id="line2d_21">
      <path clip-path="url(#pb685217470)" d="M 419.74 532.940556 
L 1429.2 532.940556 
" style="fill:none;stroke:#808080;stroke-linecap:square;stroke-width:0.8;"/>
     </g>
     <g id="line2d_22">
      <g>
       <use style="stroke:#000000;stroke-width:0.8;" x="419.74" xlink:href="#m36d0c3cd42" y="532.940556"/>
      </g>
     </g>
     <g id="text_7">
      <!-- Third task -->
      <g transform="translate(293.3775 542.058681)scale(0.24 -0.24)">
       <defs>
        <path d="M -19 4666 
L 3928 4666 
L 3928 4134 
L 2272 4134 
L 2272 0 
L 1638 0 
L 1638 4134 
L -19 4134 
L -19 4666 
z
" id="DejaVuSans-54" transform="scale(0.015625)"/>
        <path d="M 2906 2969 
L 2906 4863 
L 3481 4863 
L 3481 0 
L 2906 0 
L 2906 525 
Q 2725 213 2448 61 
Q 2172 -91 1784 -91 
Q 1150 -91 751 415 
Q 353 922 353 1747 
Q 353 2572 751 3078 
Q 1150 3584 1784 3584 
Q 2172 3584 2448 3432 
Q 2725 3281 2906 2969 
z
M 947 1747 
Q 947 1113 1208 752 
Q 1469 391 1925 391 
Q 2381 391 2643 752 
Q 2906 1113 2906 1747 
Q 2906 2381 2643 2742 
Q 2381 3103 1925 3103 
Q 1469 3103 1208 2742 
Q 947 2381 947 1747 
z
" id="DejaVuSans-64" transform="scale(0.015625)"/>
       </defs>
       <use xlink:href="#DejaVuSans-54"/>
       <use x="61.083984" xlink:href="#DejaVuSans-68"/>
       <use x="124.462891" xlink:href="#DejaVuSans-69"/>
       <use x="152.246094" xlink:href="#DejaVuSans-72"/>
       <use x="191.609375" xlink:href="#DejaVuSans-64"/>
       <use x="255.085938" xlink:href="#DejaVuSans-20"/>
       <use x="286.873047" xlink:href="#DejaVuSans-74"/>
       <use x="326.082031" xlink:href="#DejaVuSans-61"/>
       <use x="387.361328" xlink:href="#DejaVuSans-73"/>
       <use x="439.460938" xlink:href="#DejaVuSans-6b"/>
      </g>
     </g>
    </g>
    <g id="ytick_4">
     <g id="line2d_23">
      <path clip-path="url(#pb685217470)" d="M 419.74 634.87493 
L 1429.2 634.87493 
" style="fill:none;stroke:#808080;stroke-linecap:square;stroke-width:0.8;"/>
     </g>
     <g id="line2d_24">
      <g>
       <use style="stroke:#000000;stroke-width:0.8;" x="419.74" xlink:href="#m36d0c3cd42" y="634.87493"/>
      </g>
     </g>
     <g id="text_8">
      <!-- Fourth task -->
      <g transform="translate(277.2825 643.993055)scale(0.24 -0.24)">
       <use xlink:href="#DejaVuSans-46"/>
       <use x="53.894531" xlink:href="#DejaVuSans-6f"/>
       <use x="115.076172" xlink:href="#DejaVuSans-75"/>
       <use x="178.455078" xlink:href="#DejaVuSans-72"/>
       <use x="219.568359" xlink:href="#DejaVuSans-74"/>
       <use x="258.777344" xlink:href="#DejaVuSans-68"/>
       <use x="322.15625" xlink:href="#DejaVuSans-20"/>
       <use x="353.943359" xlink:href="#DejaVuSans-74"/>
       <use x="393.152344" xlink:href="#DejaVuSans-61"/>
       <use x="454.431641" xlink:href="#DejaVuSans-73"/>
       <use x="506.53125" xlink:href="#DejaVuSans-6b"/>
      </g>
     </g>
    </g>
   </g>
   <g id="line2d_25">
    <path d="M 606.677037 700.622601 
L 606.677037 254.578167 
" style="fill:none;stroke:#1f77b4;stroke-linecap:square;stroke-width:4;"/>
    <defs>
     <path d="M 0 6 
C 1.591219 6 3.117479 5.367802 4.242641 4.242641 
C 5.367802 3.117479 6 1.591219 6 0 
C 6 -1.591219 5.367802 -3.117479 4.242641 -4.242641 
C 3.117479 -5.367802 1.591219 -6 0 -6 
C -1.591219 -6 -3.117479 -5.367802 -4.242641 -4.242641 
C -5.367802 -3.117479 -6 -1.591219 -6 0 
C -6 1.591219 -5.367802 3.117479 -4.242641 4.242641 
C -3.117479 5.367802 -1.591219 6 0 6 
z
" id="m8b59e7c8ed" style="stroke:#1f77b4;"/>
    </defs>
    <g>
     <use style="fill:#1f77b4;stroke:#1f77b4;" x="606.677037" xlink:href="#m8b59e7c8ed" y="254.578167"/>
    </g>
   </g>
   <g id="line2d_26">
    <path d="M 627.447819 700.622601 
L 627.447819 254.578167 
" style="fill:none;stroke:#1f77b4;stroke-linecap:square;stroke-width:4;"/>
    <g>
     <use style="fill:#1f77b4;stroke:#1f77b4;" x="627.447819" xlink:href="#m8b59e7c8ed" y="254.578167"/>
    </g>
   </g>
   <g id="patch_8">
    <path d="M 419.74 700.622601 
L 419.74 263.324136 
" style="fill:none;stroke:#000000;stroke-linecap:square;stroke-linejoin:miter;stroke-width:0.8;"/>
   </g>
   <g id="patch_9">
    <path d="M 1429.2 700.622601 
L 1429.2 263.324136 
" style="fill:none;stroke:#000000;stroke-linecap:square;stroke-linejoin:miter;stroke-width:0.8;"/>
   </g>
   <g id="patch_10">
    <path d="M 419.74 700.622601 
L 1429.2 700.622601 
" style="fill:none;stroke:#000000;stroke-linecap:square;stroke-linejoin:miter;stroke-width:0.8;"/>
   </g>
   <g id="patch_11">
    <path d="M 419.74 263.324136 
L 1429.2 263.324136 
" style="fill:none;stroke:#000000;stroke-linecap:square;stroke-linejoin:miter;stroke-width:0.8;"/>
   </g>
   <g id="text_9">
    <!-- M1 First Milestone -->
    <g style="fill:#1f77b4;" transform="translate(577.33809 255.316336)rotate(-45)scale(0.24 -0.24)">
     <defs>
      <path d="M 628 4666 
L 1569 4666 
L 2759 1491 
L 3956 4666 
L 4897 4666 
L 4897 0 
L 4281 0 
L 4281 4097 
L 3078 897 
L 2444 897 
L 1241 4097 
L 1241 0 
L 628 0 
L 628 4666 
z
" id="DejaVuSans-4d" transform="scale(0.015625)"/>
     </defs>
     <use xlink:href="#DejaVuSans-4d"/>
     <use x="86.279297" xlink:href="#DejaVuSans-31"/>
     <use x="149.902344" xlink:href="#DejaVuSans-20"/>
     <use x="181.689453" xlink:href="#DejaVuSans-46"/>
     <use x="231.958984" xlink:href="#DejaVuSans-69"/>
     <use x="259.742188" xlink:href="#DejaVuSans-72"/>
     <use x="300.855469" xlink:href="#DejaVuSans-73"/>
     <use x="352.955078" xlink:href="#DejaVuSans-74"/>
     <use x="392.164062" xlink:href="#DejaVuSans-20"/>
     <use x="423.951172" xlink:href="#DejaVuSans-4d"/>
     <use x="510.230469" xlink:href="#DejaVuSans-69"/>
     <use x="538.013672" xlink:href="#DejaVuSans-6c"/>
     <use x="565.796875" xlink:href="#DejaVuSans-65"/>
     <use x="627.320312" xlink:href="#DejaVuSans-73"/>
     <use x="679.419922" xlink:href="#DejaVuSans-74"/>
     <use x="718.628906" xlink:href="#DejaVuSans-6f"/>
     <use x="779.810547" xlink:href="#DejaVuSans-6e"/>
     <use x="843.189453" xlink:href="#DejaVuSans-65"/>
    </g>
   </g>
   <g id="text_10">
    <!-- M2 longer milestone name -->
    <g style="fill:#1f77b4;" transform="translate(640.342795 255.316336)rotate(-45)scale(0.24 -0.24)">
     <use xlink:href="#DejaVuSans-4d"/>
     <use x="86.279297" xlink:href="#DejaVuSans-32"/>
     <use x="149.902344" xlink:href="#DejaVuSans-20"/>
     <use x="181.689453" xlink:href="#DejaVuSans-6c"/>
     <use x="209.472656" xlink:href="#DejaVuSans-6f"/>
     <use x="270.654297" xlink:href="#DejaVuSans-6e"/>
     <use x="334.033203" xlink:href="#DejaVuSans-67"/>
     <use x="397.509766" xlink:href="#DejaVuSans-65"/>
     <use x="459.033203" xlink:href="#DejaVuSans-72"/>
     <use x="500.146484" xlink:href="#DejaVuSans-20"/>
     <use x="531.933594" xlink:href="#DejaVuSans-6d"/>
     <use x="629.345703" xlink:href="#DejaVuSans-69"/>
     <use x="657.128906" xlink:href="#DejaVuSans-6c"/>
     <use x="684.912109" xlink:href="#DejaVuSans-65"/>
     <use x="746.435547" xlink:href="#DejaVuSans-73"/>
     <use x="798.535156" xlink:href="#DejaVuSans-74"/>
     <use x="837.744141" xlink:href="#DejaVuSans-6f"/>
     <use x="898.925781" xlink:href="#DejaVuSans-6e"/>
     <use x="962.304688" xlink:href="#DejaVuSans-65"/>
     <use x="1023.828125" xlink:href="#DejaVuSans-20"/>
     <use x="1055.615234" xlink:href="#DejaVuSans-6e"/>
     <use x="1118.994141" xlink:href="#DejaVuSans-61"/>
     <use x="1180.273438" xlink:href="#DejaVuSans-6d"/>
     <use x="1277.685547" xlink:href="#DejaVuSans-65"/>
    </g>
   </g>
  </g>
 </g>
 <defs>
  <clipPath id="pb685217470">
   <rect height="437.298464" width="1009.46" x="419.74" y="263.324136"/>
  </clipPath>
 </defs>
</svg>
